# xmcd
#
# Track frame offsets:
#	150
#	22022
#	33266
#	48954
#	66771
#	83023
#	102046
#	121638
#	138094
#	160905
#	178987
#
# Disc length: 2691 seconds
#
# Revision: 1
# Processed by: cddbd v1.5.2PL0 Copyright (c) Steve Scherf et al.
# Submitted via: EZCDAudioConverter 2.2.2.1
#
DISCID=820a810b
DTITLE=Francis Cabrel - Vise le ciel ou Bob Dylan revisité
DYEAR=1900
DGENRE=
TTITLE0=Comme une femme
TTITLE1=Quinn l'esquimau
TTITLE2=D'en haut de la tour du guet
TTITLE3=Je te veux
TTITLE4=On ne va nulle part
TTITLE5=Un simple coup du sort
TTITLE6=La Dignité
TTITLE7=Il faudra que tu serves quelqu'un
TTITLE8=Tout se finit là, bébé bleu
TTITLE9=L'Histoire d'Hollis Brown
TTITLE10=Comme Blind Willie Mc Tell
EXTD=
EXTT0=
EXTT1=
EXTT2=
EXTT3=
EXTT4=
EXTT5=
EXTT6=
EXTT7=
EXTT8=
EXTT9=
EXTT10=
PLAYORDER=
